# xmcd
#
# Track frame offsets: 
#        150
#        12136
#        22865
#        33902
#        44829
#        57111
#        66625
#        77883
#        89131
#        100303
#        109657
#        120021
#        131178
#        142025
#        151752
#        162050
#        172814
#        184372
#        196312
#        207363
#        216633
#        227425
#        238457
#
# Disc length: 3318 seconds
#
# Revision: 0
# Processed by: cddbd v1.5.2PL0 Copyright (c) Steve Scherf et al.
# Submitted via: ExactAudioCopyFreeDBPlugin 1.0
#
DISCID=470cf417
DTITLE=Buck Owens - The Essential Buck Owens Disc 1
DYEAR=2012
DGENRE=Country
TTITLE0=Foolin' Around
TTITLE1=Under the Influence of Love
TTITLE2=Excuse Me (I Think I've Got a Heartache)
TTITLE3=Above and Beyond
TTITLE4=Under Your Spell Again
TTITLE5=Second Fiddle
TTITLE6=Heartaches by the Number
TTITLE7=Bad Bad Dream
TTITLE8=Pick Me Up On Your Way Down
TTITLE9=I'll Take a Chance On Loving You
TTITLE10=Think It Over
TTITLE11=Heartaches for a Dime
TTITLE12=High as the Mountains
TTITLE13=I'll Catch You When You Fall
TTITLE14=Nobody's Fool But Yours
TTITLE15=I Don't Believe I'll Fall in Love Today
TTITLE16=Keeper of the Key
TTITLE17=Take Me Back Again
TTITLE18=Keys in the Mailbox
TTITLE19=Tired of Livin'
TTITLE20=Let's Agree to Disagree
TTITLE21=Walk the Floor
TTITLE22=Lyin' Again
EXTD=
EXTT0=
EXTT1=
EXTT2=
EXTT3=
EXTT4=
EXTT5=
EXTT6=
EXTT7=
EXTT8=
EXTT9=
EXTT10=
EXTT11=
EXTT12=
EXTT13=
EXTT14=
EXTT15=
EXTT16=
EXTT17=
EXTT18=
EXTT19=
EXTT20=
EXTT21=
EXTT22=
PLAYORDER=
